<svg id="Calque_1" data-name="Calque 1" xmlns="http://www.w3.org/2000/svg" viewBox="0 0 366 367"><defs><style>.cls-1{fill:#FFFFFFFF;} .cls-2{fill:#000000;}</style></defs><path class="cls-2" d="M489,313v24c-2.15,4.17-5.66,6.16-10.17,7.37-7.09,1.9-9.89,6.79-9.88,15.68,0,8.24,3.2,13.85,9.73,15.38A16.41,16.41,0,0,1,489,382v24c-1.79,5.23-5.49,8.13-10.66,10-6.11,2.27-8.56,7.9-8.7,13.82s1.8,12.38,7.67,15,10,6,11.69,12.14v19c-.86,5.51-3.93,8.58-9.51,9.85-7.31,1.67-10.53,6.63-10.69,15.09-.16,8.85,2.87,14.27,10.05,16.19,5.48,1.47,9.26,4,10.15,9.87v20c-1.51,3.9-3.1,7.73-7.61,9.11-4.88,1.5-8.08,4.91-10.84,9-4.94,7.37-10.84,13.49-20.55,13.86h-5c-.46-.18-.94-.55-1.37-.51-9.44,1-15-2.67-17-12.42-1-4.93-5.66-7.27-10.54-8-6.22-.93-17.06,5.52-19.5,11.3-3,7.11-6.44,9.26-14.29,9a84.53,84.53,0,0,0-10.43-.16c-7.45.69-13.42-.62-15.25-10.19-1.23-6.48-7.83-10.2-15.42-10-8.2.2-13.8,3.53-15.3,10.13-1.22,5.34-3.86,8.93-8.9,10.85H294c-2.59-2.94-6.35-5.47-7.55-8.9-2.83-8.12-6.83-12.11-15.95-11.94-7.14.14-13.89,2.19-15.83,11.33-1.41,6.63-4.5,8.73-11.3,8.88-4.81.1-9.62-.12-14.42,0-8.6.29-11.07-1.43-13.54-9.8-2.08-7.1-6.87-10.23-15.6-10.22-8.43,0-14.34,3.52-15.67,10.28A13.29,13.29,0,0,1,176,579H153c-4.67-2.21-7-5.91-9-10.78a19.06,19.06,0,0,0-8.57-9.5c-5.05-2.43-9.39-5.07-12.47-9.72V526c2.18-5.44,6.31-8.65,11.7-10.66a9.37,9.37,0,0,0,4.12-3.22c6.7-9.54,4-20.81-6.43-26-4.61-2.28-8.08-5.05-9.39-10.12V455c1.76-5.16,5.44-7.81,10.68-9.14,6.66-1.69,9.8-6.77,9.91-14.83s-3.48-14.42-10-16c-5.29-1.27-9.07-3.7-10.63-9.06V384c2-5.15,5.73-7.84,11.18-9.11,6.37-1.5,9.35-6.88,9.41-15.08s-3.18-13.92-9.61-15.42c-5.53-1.29-9.16-4.1-11-9.39V312c2.12-3.94,4.94-6.44,9.73-7.33,7.07-1.31,10.74-7.22,10.85-15.68s-3.74-14.27-11.16-15.93c-4.35-1-7.58-3-9.42-7.06V241c2.35-2.14,4.66-4.33,7.06-6.41,3.43-3,7-5.77,10.38-8.82,4.93-4.51,9.71-9.17,14.56-13.77h22c2.31,3,5.51,5.69,6.75,9.09,2.69,7.41,7,11,15.54,11.1,9.55.16,14-2.5,16.16-10.51,1.22-4.44,3.36-7.76,7.55-9.68h25c4.2,2.09,5.8,5.83,7,10.13,1.89,7,7.14,10.06,16.16,10,8.25-.1,13.31-3.32,14.91-10.14,1-4.38,3-7.8,7-9.94h25c2.82,3.47,5.86,6.79,8.42,10.44,3.76,5.37,8.54,9.14,15.19,8.91,5.82-.2,11.59-2.46,14-8,2.16-4.88,4.71-8.81,9.35-11.35h21a30.32,30.32,0,0,1,11.33,12.31c3.7,7.44,11.13,8.72,18.93,7.7,6.27-.82,10.06-4.36,11.85-11.56A11.6,11.6,0,0,1,435,212h24c2.66,2.74,5.42,5.39,7.94,8.25s4.71,6.16,7.31,9c4.81,5.33,9.82,10.49,14.75,15.72v20c-2.28,5.16-6.29,7.79-11.74,9.23-5,1.31-8.09,4.88-8.61,10.37-.65,6.83,4.68,17.23,11,19.82A17.13,17.13,0,0,1,489,313Zm-8,153.24c-4.34-4.4-7.87-8.59-12-12.06-8.95-7.5-13.79-16.58-11.92-28.4,1.51-9.51,7.42-16,15.21-21.2,6.66-4.43,7.17-12.25,1.37-17.74-1.56-1.48-3.46-2.6-5.16-3.93-16.3-12.79-15.57-35.66,1.5-47.43,10-6.89,10.09-15,.24-22.24-18.46-13.48-18.26-35.71.43-48.94,9.15-6.48,9.25-14.41.7-21.7A127.56,127.56,0,0,1,458,229.31c-6.94-7.94-14.92-7.88-21.11.61-14,19.12-36.41,18.69-50-1-5.5-8-14.49-7.81-20.11.09a37.87,37.87,0,0,1-8,8.77c-14.17,10.44-30.9,7.53-41.24-6.82-7.27-10.08-15.21-10.54-22-1.28-14.11,19.42-36.74,19.13-50.22-.64-5.46-8-14.68-8-20.08-.06-13.17,19.45-36.17,19.76-50,.67-6.3-8.67-14.08-8.7-21-.57a116.8,116.8,0,0,1-13.62,13.71c-8.45,7.1-8.38,14.73.72,21.11C160,277,160,300.52,141.49,313.51c-9.29,6.5-9.68,15.14-.11,21.15a29.32,29.32,0,0,1,.11,49.61c-9.72,6.13-9.47,14.41-.24,21.21,18.7,13.77,18.73,36.1.07,49.63-9.55,6.92-9.42,14.66.36,21.46,18.2,12.67,18.16,36.71-.08,49.32-9.37,6.49-9.4,14.19-.55,21.49,4.59,3.79,9.22,7.89,12.59,12.72,5.62,8.08,16.18,9.32,22.35-.22,7.39-11.45,20-16,32-12.73,7.74,2.14,13.14,7.36,17.59,13.9,5.58,8.21,15.16,7.91,20.33-.37,11.61-18.59,36.39-19.23,49.15-1.39a22.39,22.39,0,0,0,6.7,6.49c5.52,3.15,10.61.86,15.72-6.34,12.75-18,37.39-17.4,49.17,1.09,5.5,8.62,14.83,8.8,20.63.4,13.48-19.5,36-19.75,50-.55,6.25,8.58,13.36,8.69,20.56.8a172.61,172.61,0,0,1,15-14.41c6.56-5.63,6.69-14.32-.15-19.57-1.31-1-2.77-1.84-4.07-2.87-15.24-12.11-15.35-32.66-.49-45.24C472.46,475.37,476.28,471,481,466.24Z" transform="translate(-123 -212)"/><path class="cls-1" d="M176,579a13.29,13.29,0,0,0,8.14-10.33c1.33-6.76,7.24-10.26,15.67-10.28,8.73,0,13.52,3.12,15.6,10.22,2.47,8.37,4.94,10.09,13.54,9.8,4.8-.16,9.61.06,14.42,0,6.8-.15,9.89-2.25,11.3-8.88,1.94-9.14,8.69-11.19,15.83-11.33,9.12-.17,13.12,3.82,15.95,11.94,1.2,3.43,5,6,7.55,8.9Z" transform="translate(-123 -212)"/><path class="cls-1" d="M317,579c5-1.92,7.68-5.51,8.9-10.85,1.5-6.6,7.1-9.93,15.3-10.13,7.59-.18,14.19,3.54,15.42,10,1.83,9.57,7.8,10.88,15.25,10.19a84.53,84.53,0,0,1,10.43.16c7.85.25,11.29-1.9,14.29-9,2.44-5.78,13.28-12.23,19.5-11.3,4.88.72,9.54,3.06,10.54,8,2,9.75,7.56,13.41,17,12.42.43,0,.91.33,1.37.51Z" transform="translate(-123 -212)"/><path class="cls-1" d="M435,212a11.6,11.6,0,0,0-6.89,8.45c-1.79,7.2-5.58,10.74-11.85,11.56-7.8,1-15.23-.26-18.93-7.7A30.32,30.32,0,0,0,386,212Z" transform="translate(-123 -212)"/><path class="cls-1" d="M123,335c1.82,5.29,5.45,8.1,11,9.39,6.43,1.5,9.68,7.3,9.61,15.42s-3,13.58-9.41,15.08c-5.45,1.27-9.17,4-11.18,9.11Z" transform="translate(-123 -212)"/><path class="cls-1" d="M123,406c1.56,5.36,5.34,7.79,10.63,9.06,6.48,1.55,10.08,7.8,10,16s-3.25,13.14-9.91,14.83c-5.24,1.33-8.92,4-10.68,9.14Z" transform="translate(-123 -212)"/><path class="cls-1" d="M123,266c1.84,4.1,5.07,6.08,9.42,7.06,7.42,1.66,11.26,7.44,11.16,15.93s-3.78,14.37-10.85,15.68c-4.79.89-7.61,3.39-9.73,7.33Z" transform="translate(-123 -212)"/><path class="cls-1" d="M489,527c-.89-5.87-4.67-8.4-10.15-9.87-7.18-1.92-10.21-7.34-10.05-16.19.16-8.46,3.38-13.42,10.69-15.09,5.58-1.27,8.65-4.34,9.51-9.85Z" transform="translate(-123 -212)"/><path class="cls-1" d="M223,212c-4.19,1.92-6.33,5.24-7.55,9.68-2.2,8-6.61,10.67-16.16,10.51-8.58-.14-12.85-3.69-15.54-11.1-1.24-3.4-4.44-6.08-6.75-9.09Z" transform="translate(-123 -212)"/><path class="cls-1" d="M489,382a16.41,16.41,0,0,0-10.32-6.57c-6.53-1.53-9.72-7.14-9.73-15.38,0-8.89,2.79-13.78,9.88-15.68,4.51-1.21,8-3.2,10.17-7.37Z" transform="translate(-123 -212)"/><path class="cls-1" d="M293,212c-4,2.14-5.93,5.56-7,9.94-1.6,6.82-6.66,10-14.91,10.14-9,.11-14.27-3-16.16-10-1.16-4.3-2.76-8-7-10.13Z" transform="translate(-123 -212)"/><path class="cls-1" d="M489,313a17.13,17.13,0,0,0-9.4-8.58c-6.27-2.59-11.6-13-11-19.82.52-5.49,3.65-9.06,8.61-10.37,5.45-1.44,9.46-4.07,11.74-9.23Z" transform="translate(-123 -212)"/><path class="cls-1" d="M489,457c-1.72-6.17-5.81-9.53-11.69-12.14s-7.81-9-7.67-15,2.59-11.55,8.7-13.82c5.17-1.91,8.87-4.81,10.66-10Z" transform="translate(-123 -212)"/><path class="cls-1" d="M123,476c1.31,5.07,4.78,7.84,9.39,10.12,10.47,5.19,13.13,16.46,6.43,26a9.37,9.37,0,0,1-4.12,3.22c-5.39,2-9.52,5.22-11.7,10.66Z" transform="translate(-123 -212)"/><path class="cls-1" d="M365,212c-4.64,2.54-7.19,6.47-9.35,11.35-2.45,5.54-8.22,7.8-14,8-6.65.23-11.43-3.54-15.19-8.91-2.56-3.65-5.6-7-8.42-10.44Z" transform="translate(-123 -212)"/><path class="cls-1" d="M450,579c9.71-.37,15.61-6.49,20.55-13.86,2.76-4.12,6-7.53,10.84-9,4.51-1.38,6.1-5.21,7.61-9.11v32Z" transform="translate(-123 -212)"/><path class="cls-1" d="M123,549c3.08,4.65,7.42,7.29,12.47,9.72a19.06,19.06,0,0,1,8.57,9.5c1.92,4.87,4.29,8.57,9,10.78H123Z" transform="translate(-123 -212)"/><path class="cls-1" d="M489,245c-4.93-5.23-9.94-10.39-14.75-15.72-2.6-2.87-4.76-6.13-7.31-9s-5.28-5.51-7.94-8.25h30Z" transform="translate(-123 -212)"/><path class="cls-1" d="M155,212c-4.85,4.6-9.63,9.26-14.56,13.77-3.36,3-6.95,5.84-10.38,8.82-2.4,2.08-4.71,4.27-7.06,6.41V212Z" transform="translate(-123 -212)"/><path class="cls-1" d="M481,466.24c-4.74,4.74-8.56,9.13-12.95,12.85-14.86,12.58-14.75,33.13.49,45.24,1.3,1,2.76,1.85,4.07,2.87,6.84,5.25,6.71,13.94.15,19.57a172.61,172.61,0,0,0-15,14.41c-7.2,7.89-14.31,7.78-20.56-.8-14-19.2-36.52-19-50,.55-5.8,8.4-15.13,8.22-20.63-.4-11.78-18.49-36.42-19-49.17-1.09-5.11,7.2-10.2,9.49-15.72,6.34a22.39,22.39,0,0,1-6.7-6.49c-12.76-17.84-37.54-17.2-49.15,1.39-5.17,8.28-14.75,8.58-20.33.37-4.45-6.54-9.85-11.76-17.59-13.9-11.92-3.32-24.58,1.28-32,12.73-6.17,9.54-16.73,8.3-22.35.22-3.37-4.83-8-8.93-12.59-12.72-8.85-7.3-8.82-15,.55-21.49,18.24-12.61,18.28-36.65.08-49.32-9.78-6.8-9.91-14.54-.36-21.46,18.66-13.53,18.63-35.86-.07-49.63-9.23-6.8-9.48-15.08.24-21.21a29.32,29.32,0,0,0-.11-49.61c-9.57-6-9.18-14.65.11-21.15,18.55-13,18.49-36.52-.12-49.58-9.1-6.38-9.17-14-.72-21.11a116.8,116.8,0,0,0,13.62-13.71c6.91-8.13,14.69-8.1,21,.57,13.86,19.09,36.86,18.78,50-.67,5.4-8,14.62-8,20.08.06,13.48,19.77,36.11,20.06,50.22.64,6.74-9.26,14.68-8.8,22,1.28,10.34,14.35,27.07,17.26,41.24,6.82a37.87,37.87,0,0,0,8-8.77c5.62-7.9,14.61-8,20.11-.09,13.6,19.66,36,20.09,50,1,6.19-8.49,14.17-8.55,21.11-.61a127.56,127.56,0,0,0,13.42,13.29c8.55,7.29,8.45,15.22-.7,21.7-18.69,13.23-18.89,35.46-.43,48.94,9.85,7.2,9.77,15.35-.24,22.24-17.07,11.77-17.8,34.64-1.5,47.43,1.7,1.33,3.6,2.45,5.16,3.93,5.8,5.49,5.29,13.31-1.37,17.74-7.79,5.19-13.7,11.69-15.21,21.2-1.87,11.82,3,20.9,11.92,28.4C473.15,457.65,476.68,461.84,481,466.24Zm-40.63-71.8q0-61.21,0-122.44c0-9.57-1.49-11-11-11H203c-7.65,0-15.29-.14-22.94,0-4.55.11-7.38,2.66-8.08,7.24a47.46,47.46,0,0,0-.74,7.41c.08,26.65.36,53.3.34,79.94,0,53-.26,106-.36,158.92,0,11.92,3.52,15.42,15.57,15.37,11.32,0,22.64-.48,34-.49q92.72-.07,185.44,0c6.65,0,13.31.43,20,.35,11.16-.14,14.22-3.31,14.23-14.37Q440.41,454.91,440.39,394.44Z" transform="translate(-123 -212)"/><path class="cls-2" d="M440.39,394.44q0,60.48,0,121c0,11.06-3.07,14.23-14.23,14.37-6.66.08-13.32-.35-20-.35q-92.71,0-185.44,0c-11.32,0-22.64.44-34,.49-12,.05-15.59-3.45-15.57-15.37.1-53,.32-105.94.36-158.92,0-26.64-.26-53.29-.34-79.94a47.46,47.46,0,0,1,.74-7.41c.7-4.58,3.53-7.13,8.08-7.24,7.65-.17,15.29,0,22.94,0H429.42c9.47,0,10.95,1.43,11,11Q440.43,333.23,440.39,394.44ZM300.14,468.77c8.22-14.6,15.88-28.17,23.51-41.75,18.21-32.37,36.32-64.81,54.7-97.08a68.55,68.55,0,0,1,10.74-14.2c6-6.07,11.18-6.24,16.65.2,6.71,7.89,12.21,16.8,18.29,25.23a39.43,39.43,0,0,0,3.44,3.65c.51-1.6,1.45-3.21,1.47-4.82.17-18.65.2-37.31.26-56,0-10.28-1.8-12.08-12.24-12.08H197.05c-11.6,0-14.08,2.43-14,14q.17,51,.37,101.93c.06,20,0,40,0,60V488a8.09,8.09,0,0,0,3.77-3.24q15.51-23.76,31-47.56c6.24-9.61,12.3-19.33,18.68-28.85,6.71-10,13.65-10.26,21-1,.62.78,1.21,1.59,1.78,2.41l15.26,22.17Zm98.23-149.88c-3.72,5.43-6.75,9.21-9.1,13.38Q361,382.58,332.82,433c-8.68,15.49-17.27,31-26.19,46.38-4.16,7.16-7.76,7.18-12.64.47-4.4-6-8.54-12.27-12.76-18.44-10.85-15.85-21.68-31.71-33.17-48.51C223.44,446.05,201.81,479.78,184,517a52.45,52.45,0,0,0,6.47,1q114.74.15,229.47.21c7.4,0,9.13-1.79,9.09-9.11-.12-21.16-.39-42.31-.4-63.46,0-18.49.53-37,.28-55.46-.08-6.33-.39-13.32-3-18.83C417.56,354,408.08,337.18,398.37,318.89Z" transform="translate(-123 -212)"/><path class="cls-1" d="M300.14,468.77l-25.33-36.83-15.26-22.17c-.57-.82-1.16-1.63-1.78-2.41-7.31-9.23-14.25-9-21,1-6.38,9.52-12.44,19.24-18.68,28.85q-15.45,23.81-31,47.56a8.09,8.09,0,0,1-3.77,3.24V447.81c0-20,.05-40,0-60q-.13-51-.37-101.93c0-11.53,2.44-14,14-14H417c10.44,0,12.27,1.8,12.24,12.08-.06,18.66-.09,37.32-.26,56,0,1.61-1,3.22-1.47,4.82a39.43,39.43,0,0,1-3.44-3.65c-6.08-8.43-11.58-17.34-18.29-25.23-5.47-6.44-10.64-6.27-16.65-.2a68.55,68.55,0,0,0-10.74,14.2C360,362.21,341.86,394.65,323.65,427,316,440.6,308.36,454.17,300.14,468.77ZM271,330.29c-.08-19.87-16.15-35.56-36.79-35.19-18.44.33-34.51,15-34.5,35.8,0,19.5,14.93,35.48,35.11,35.79C255.28,367,271.08,350.7,271,330.29Z" transform="translate(-123 -212)"/><path class="cls-1" d="M398.37,318.89c9.71,18.29,19.19,35.08,27.51,52.43,2.65,5.51,3,12.5,3,18.83.25,18.48-.28,37-.28,55.46,0,21.15.28,42.3.4,63.46,0,7.32-1.69,9.12-9.09,9.11q-114.74,0-229.47-.21a52.45,52.45,0,0,1-6.47-1c17.8-37.19,39.43-70.92,64.05-104.07,11.49,16.8,22.32,32.66,33.17,48.51,4.22,6.17,8.36,12.4,12.76,18.44,4.88,6.71,8.48,6.69,12.64-.47,8.92-15.36,17.51-30.89,26.19-46.38Q361,382.63,389.27,332.27C391.62,328.1,394.65,324.32,398.37,318.89Z" transform="translate(-123 -212)"/><path class="cls-2" d="M271,330.29c.08,20.41-15.72,36.73-36.18,36.4-20.18-.31-35.1-16.29-35.11-35.79,0-20.81,16.06-35.47,34.5-35.8C254.85,294.73,270.92,310.42,271,330.29Zm-59.05.58a24.21,24.21,0,0,0,24.1,24.28c12.92-.06,23.78-11.32,23.51-24.65-.29-14.55-11.23-24.55-23.83-24.25C220.81,306.61,211.76,318.14,212,330.87Z" transform="translate(-123 -212)"/><path class="cls-1" d="M212,330.87c-.19-12.73,8.86-24.26,23.78-24.62,12.6-.3,23.54,9.7,23.83,24.25.27,13.33-10.59,24.59-23.51,24.65A24.21,24.21,0,0,1,212,330.87Z" transform="translate(-123 -212)"/></svg>